<svg preserveAspectRatio="xMidYMid meet" data-bbox="-99.91 -132.71 3113.24 3062.63" viewBox="0 0 2760 2760" height="2760" width="2760" xmlns="http://www.w3.org/2000/svg" data-type="ugc" role="presentation" aria-hidden="true" aria-label="">
    <g>
        <path fill="none" d="M3013.33-132.71v3062.63H-99.91V-132.71z"></path>
        <path fill="#c93279" d="M2350 1499.47v160H550v-160z"></path>
        <path fill="#ff9ecb" d="M747.5 1307.22v75.58c0 8.953-7.257 16.21-16.21 16.21H566.71c-8.953 0-16.21-7.257-16.21-16.21v-75.58c0-8.953 7.257-16.21 16.21-16.21h164.58c8.953 0 16.21 7.257 16.21 16.21"></path>
        <path fill="#ff52a2" d="M1647 1304.3v79.88c0 7.765-6.295 14.06-14.06 14.06h-168.88c-7.765 0-14.06-6.295-14.06-14.06v-79.88c0-7.765 6.295-14.06 14.06-14.06h168.88c7.765 0 14.06 6.295 14.06 14.06"></path>
        <path fill="#ff52a2" d="M710 1427.76v44.5c0 8.698-7.052 15.75-15.75 15.75h-90.5c-8.698 0-15.75-7.052-15.75-15.75v-44.5c0-8.698 7.052-15.75 15.75-15.75h90.5c8.698 0 15.75 7.052 15.75 15.75"></path>
        <path fill="#ff9ecb" d="M2067.5 1423.63v51.22c0 6.843-5.547 12.39-12.39 12.39h-97.22c-6.843 0-12.39-5.547-12.39-12.39v-51.22c0-6.843 5.547-12.39 12.39-12.39h97.22c6.843 0 12.39 5.547 12.39 12.39"></path>
        <path fill="#ff52a2" d="M1609.5 1424.53v47.88c0 7.765-6.295 14.06-14.06 14.06h-93.88c-7.765 0-14.06-6.295-14.06-14.06v-47.88c0-7.765 6.295-14.06 14.06-14.06h93.88c7.765 0 14.06 6.295 14.06 14.06"></path>
        <path fill="#ff52a2" d="M976 1389.51c0 54.4-44.1 98.5-98.5 98.5s-98.5-44.1-98.5-98.5 44.1-98.5 98.5-98.5 98.5 44.1 98.5 98.5"></path>
        <path fill="#ff9ecb" d="M1876 1388.74c0 54.4-44.1 98.5-98.5 98.5s-98.5-44.1-98.5-98.5 44.1-98.5 98.5-98.5 98.5 44.1 98.5 98.5"></path>
        <path fill="#ff9ecb" d="M1205 1297.86v23.52a6.85 6.85 0 0 1-6.85 6.85h-183.3a6.85 6.85 0 0 1-6.85-6.85v-23.52a6.85 6.85 0 0 1 6.85-6.85h183.3a6.85 6.85 0 0 1 6.85 6.85"></path>
        <path fill="#ff9ecb" d="M1205 1459.22v18.81a9.21 9.21 0 0 1-9.21 9.21h-178.58a9.21 9.21 0 0 1-9.21-9.21v-18.81a9.21 9.21 0 0 1 9.21-9.21h178.58a9.21 9.21 0 0 1 9.21 9.21"></path>
        <path fill="#ff52a2" d="M1160.5 1356.41v66.2c0 10.438-8.462 18.9-18.9 18.9h-70.2c-10.438 0-18.9-8.462-18.9-18.9v-66.2c0-10.438 8.462-18.9 18.9-18.9h70.2c10.438 0 18.9 8.462 18.9 18.9"></path>
        <path fill="#ff9ecb" d="M2183 1290.24h105c25.39 0 46 20.61 46 46v36c0 5.52-4.48 10-10 10h-177c-5.52 0-10-4.48-10-10v-36c0-25.39 20.61-46 46-46"></path>
        <path fill="#ff52a2" d="M2288 1486.46h-105c-25.39 0-46-20.61-46-46v-36.69c0-5.14 4.17-9.31 9.31-9.31h178.39c5.14 0 9.31 4.17 9.31 9.31v36.69c0 25.39-20.61 46-46 46Z"></path>
        <path fill="#ff52a2" d="M1242.68 1487.24h176.54c5.2 0 7.67-6.41 3.8-9.9l-176.54-159.17c-3.65-3.29-9.48-.7-9.48 4.22v159.17c0 3.14 2.54 5.68 5.68 5.68"></path>
        <path fill="#ff9ecb" d="M1428.32 1291.01h-176.54c-5.2 0-7.67 6.41-3.8 9.9l176.54 159.17c3.65 3.29 9.48.7 9.48-4.22v-159.17c0-3.14-2.54-5.68-5.68-5.68"></path>
        <path fill="#ff52a2" d="m1939.39 1389.22-236.75-326.81c-9.81-13.54-.07-32.49 16.65-32.38l574.77 3.51c16.65.1 26.18 19.03 16.34 32.47l-236.78 323.29a20.4 20.4 0 0 1-16.47 8.35h-101.23a20.42 20.42 0 0 1-16.53-8.44Z"></path>
        <path fill="#c93279" d="M846 1659.47c0 45.563-36.937 82.5-82.5 82.5s-82.5-36.937-82.5-82.5 36.937-82.5 82.5-82.5 82.5 36.937 82.5 82.5"></path>
        <path fill="#c93279" d="M2219.5 1659.47c0 45.563-36.937 82.5-82.5 82.5s-82.5-36.937-82.5-82.5 36.937-82.5 82.5-82.5 82.5 36.937 82.5 82.5"></path>
        <path fill="#c93279" d="M1761.5 1659.47c0 45.563-36.937 82.5-82.5 82.5s-82.5-36.937-82.5-82.5 36.937-82.5 82.5-82.5 82.5 36.937 82.5 82.5"></path>
        <path fill="#c93279" d="M1303.5 1659.47c0 45.563-36.937 82.5-82.5 82.5s-82.5-36.937-82.5-82.5 36.937-82.5 82.5-82.5 82.5 36.937 82.5 82.5"></path>
        <path fill="none" d="M3013.33-132.71v3062.63H-99.91V-132.71z"></path>
        <path fill="#c93279" d="M2350 1499.47v160H550v-160z"></path>
        <path fill="#ff9ecb" d="M747.5 1307.22v75.58c0 8.953-7.257 16.21-16.21 16.21H566.71c-8.953 0-16.21-7.257-16.21-16.21v-75.58c0-8.953 7.257-16.21 16.21-16.21h164.58c8.953 0 16.21 7.257 16.21 16.21"></path>
        <path fill="#ff52a2" d="M1647 1304.3v79.88c0 7.765-6.295 14.06-14.06 14.06h-168.88c-7.765 0-14.06-6.295-14.06-14.06v-79.88c0-7.765 6.295-14.06 14.06-14.06h168.88c7.765 0 14.06 6.295 14.06 14.06"></path>
        <path fill="#ff52a2" d="M710 1427.76v44.5c0 8.698-7.052 15.75-15.75 15.75h-90.5c-8.698 0-15.75-7.052-15.75-15.75v-44.5c0-8.698 7.052-15.75 15.75-15.75h90.5c8.698 0 15.75 7.052 15.75 15.75"></path>
        <path fill="#ff9ecb" d="M2067.5 1423.63v51.22c0 6.843-5.547 12.39-12.39 12.39h-97.22c-6.843 0-12.39-5.547-12.39-12.39v-51.22c0-6.843 5.547-12.39 12.39-12.39h97.22c6.843 0 12.39 5.547 12.39 12.39"></path>
        <path fill="#ff52a2" d="M1609.5 1424.53v47.88c0 7.765-6.295 14.06-14.06 14.06h-93.88c-7.765 0-14.06-6.295-14.06-14.06v-47.88c0-7.765 6.295-14.06 14.06-14.06h93.88c7.765 0 14.06 6.295 14.06 14.06"></path>
        <path fill="#ff52a2" d="M976 1389.51c0 54.4-44.1 98.5-98.5 98.5s-98.5-44.1-98.5-98.5 44.1-98.5 98.5-98.5 98.5 44.1 98.5 98.5"></path>
        <path fill="#ff9ecb" d="M1876 1388.74c0 54.4-44.1 98.5-98.5 98.5s-98.5-44.1-98.5-98.5 44.1-98.5 98.5-98.5 98.5 44.1 98.5 98.5"></path>
        <path fill="#ff9ecb" d="M1205 1297.86v23.52a6.85 6.85 0 0 1-6.85 6.85h-183.3a6.85 6.85 0 0 1-6.85-6.85v-23.52a6.85 6.85 0 0 1 6.85-6.85h183.3a6.85 6.85 0 0 1 6.85 6.85"></path>
        <path fill="#ff9ecb" d="M1205 1459.22v18.81a9.21 9.21 0 0 1-9.21 9.21h-178.58a9.21 9.21 0 0 1-9.21-9.21v-18.81a9.21 9.21 0 0 1 9.21-9.21h178.58a9.21 9.21 0 0 1 9.21 9.21"></path>
        <path fill="#ff52a2" d="M1160.5 1356.41v66.2c0 10.438-8.462 18.9-18.9 18.9h-70.2c-10.438 0-18.9-8.462-18.9-18.9v-66.2c0-10.438 8.462-18.9 18.9-18.9h70.2c10.438 0 18.9 8.462 18.9 18.9"></path>
        <path fill="#ff9ecb" d="M2183 1290.24h105c25.39 0 46 20.61 46 46v36c0 5.52-4.48 10-10 10h-177c-5.52 0-10-4.48-10-10v-36c0-25.39 20.61-46 46-46"></path>
        <path fill="#ff52a2" d="M2288 1486.46h-105c-25.39 0-46-20.61-46-46v-36.69c0-5.14 4.17-9.31 9.31-9.31h178.39c5.14 0 9.31 4.17 9.31 9.31v36.69c0 25.39-20.61 46-46 46Z"></path>
        <path fill="#ff52a2" d="M1242.68 1487.24h176.54c5.2 0 7.67-6.41 3.8-9.9l-176.54-159.17c-3.65-3.29-9.48-.7-9.48 4.22v159.17c0 3.14 2.54 5.68 5.68 5.68"></path>
        <path fill="#ff9ecb" d="M1428.32 1291.01h-176.54c-5.2 0-7.67 6.41-3.8 9.9l176.54 159.17c3.65 3.29 9.48.7 9.48-4.22v-159.17c0-3.14-2.54-5.68-5.68-5.68"></path>
        <path fill="#ff52a2" d="m1939.39 1389.22-236.75-326.81c-9.81-13.54-.07-32.49 16.65-32.38l574.77 3.51c16.65.1 26.18 19.03 16.34 32.47l-236.78 323.29a20.4 20.4 0 0 1-16.47 8.35h-101.23a20.42 20.42 0 0 1-16.53-8.44Z"></path>
        <path fill="#c93279" d="M846 1659.47c0 45.563-36.937 82.5-82.5 82.5s-82.5-36.937-82.5-82.5 36.937-82.5 82.5-82.5 82.5 36.937 82.5 82.5"></path>
        <path fill="#c93279" d="M2219.5 1659.47c0 45.563-36.937 82.5-82.5 82.5s-82.5-36.937-82.5-82.5 36.937-82.5 82.5-82.5 82.5 36.937 82.5 82.5"></path>
        <path fill="#c93279" d="M1761.5 1659.47c0 45.563-36.937 82.5-82.5 82.5s-82.5-36.937-82.5-82.5 36.937-82.5 82.5-82.5 82.5 36.937 82.5 82.5"></path>
        <path fill="#c93279" d="M1303.5 1659.47c0 45.563-36.937 82.5-82.5 82.5s-82.5-36.937-82.5-82.5 36.937-82.5 82.5-82.5 82.5 36.937 82.5 82.5"></path>
    </g>
</svg>